<svg width="32" height="32" viewBox="0 0 32 32" fill="none" xmlns="http://www.w3.org/2000/svg">
<rect width="32" height="32" fill="white"/>
<path d="M7.12695 10.8613C11.6342 11.104 15.2617 14.6526 15.6035 19.1533L15.6904 20.2861H6V10.7998L7.12695 10.8613ZM25.2832 11.1074C25.2268 16.0862 21.2538 20.1201 16.2998 20.2773V20.0684C16.2998 15.1934 20.1984 11.2133 25.0723 11.1123L25.2832 11.1074ZM16.2998 1.00684C21.2894 1.16514 25.2861 5.25811 25.2861 10.2861V10.4766L25.082 10.4658L24.8105 10.4521C20.0392 10.1995 16.2998 6.25656 16.2998 1.47852V1.00684ZM15.6309 1.88574C15.2767 6.48784 11.4934 10.0732 6.87891 10.1797L6 10.1992V1H15.6992L15.6309 1.88574Z" fill="#F2AE03"/>
<g clip-path="url(#clip0_4819_11400)">
<path d="M15.9883 21.8857C15.6341 26.4878 11.8508 30.0732 7.23633 30.1797L6.35059 30.2002L6.34082 30.7998L7.48438 30.8613C11.9916 31.104 15.6191 34.6526 15.9609 39.1533L16.0479 40.2842C16.032 40.2843 16.0158 40.2861 16 40.2861H15.2861C10.1578 40.2861 6 36.1284 6 31V21H16.0576L15.9883 21.8857ZM25.2842 31.1182C25.2236 35.9718 21.4402 39.9254 16.6572 40.2598V40.0684C16.6572 35.2421 20.4785 31.2945 25.2842 31.1182ZM25.168 30.4521C20.3967 30.1994 16.6572 26.2565 16.6572 21.4785V21H25.2861V30.458L25.168 30.4521Z" fill="#F2AE03"/>
</g>
<path d="M17 21L18.6763 21.2186C22.5307 21.7214 25.5643 24.755 26.0671 28.6095L26.2857 30.2857" stroke="#023047" stroke-width="0.357143" stroke-linecap="round"/>
<path d="M17 27.0715C18.7752 27.0715 20.2143 28.5106 20.2143 30.2858" stroke="#023047" stroke-width="0.357143" stroke-linecap="round"/>
<path d="M17 22.0715L18.397 22.262C22.1429 22.7728 24.9939 25.8789 25.1827 29.6548L25.2143 30.2858" stroke="#023047" stroke-width="0.357143" stroke-linecap="round"/>
<path d="M17 23.1429L18.3436 23.2844C21.4804 23.6146 23.9143 26.1717 24.0893 29.321L24.1429 30.2858" stroke="#023047" stroke-width="0.357143" stroke-linecap="round"/>
<path d="M17 24.2144L17.751 24.3027C20.7849 24.6596 23.0714 27.2309 23.0714 30.2858" stroke="#023047" stroke-width="0.357143" stroke-linecap="round"/>
<path d="M17 25.2858H17.3444C20.0531 25.2858 22.193 27.5839 22 30.2858" stroke="#023047" stroke-width="0.357143" stroke-linecap="round"/>
<path d="M17 26L17.3707 26.0309C19.5836 26.2153 21.2857 28.0652 21.2857 30.2857" stroke="#023047" stroke-width="0.357143" stroke-linecap="round"/>
<path d="M17 28.1429C18.1835 28.1429 19.1429 29.1023 19.1429 30.2858" stroke="#023047" stroke-width="0.357143" stroke-linecap="round"/>
<path d="M17 29.2144C17.5917 29.2144 18.0714 29.6941 18.0714 30.2858" stroke="#023047" stroke-width="0.357143" stroke-linecap="round"/>
<defs>
<clipPath id="clip0_4819_11400">
<rect width="9" height="10" fill="white" transform="matrix(0 1 -1 0 16 21)"/>
</clipPath>
</defs>
</svg>
